<svg xmlns="http://www.w3.org/2000/svg" viewBox="0 0 448 512"><path d="m 0,500 v -24 c 0,-6.627 5.373,-12 12,-12 h 424 c 6.627,0 12,5.373 12,12 v 24 c 0,6.627 -5.373,12 -12,12 H 12 C 5.373,512 0,506.627 0,500 Z" /><path d="M 428,398.5 H 402.6 L 262.7,8 C 261,3.2 256.5,0 251.4,0 H 196.6 C 191.5,0 187,3.2 185.3,8 L 45.4,398.5 H 20 c -6.6,0 -12,5.4 -12,12 V 436 c 0,6.6 5.4,12 12,12 h 120 c 6.6,0 12,-5.4 12,-12 v -25.5 c 0,-6.6 -5.4,-12 -12,-12 h -30.5 l 34.9,-99.6 H 303 l 34.9,99.6 H 308 c -6.6,0 -12,5.4 -12,12 V 436 c 0,6.6 5.4,12 12,12 h 120 c 6.6,0 12,-5.4 12,-12 v -25.5 c 0,-6.6 -5.4,-12 -12,-12 z M 160.2,248.1 215.4,92.6 c 5.7,-18.4 8.6,-34.3 8.6,-34.3 0,0 2.2,15.9 8.6,34.3 l 54.6,155.5 z"/></svg>